<svg width="126" height="119" viewBox="0 0 126 119" fill="none" xmlns="http://www.w3.org/2000/svg">
<g clip-path="url(#clip0_1_12322)">
<path d="M93.9623 16.032L77.0992 77.6578C76.933 78.2613 76.5334 78.7746 75.9879 79.0853C75.4424 79.3959 74.7955 79.4785 74.1889 79.3149L26.1234 66.281C25.5174 66.1155 25.0019 65.7174 24.6901 65.1741C24.3782 64.6308 24.2953 63.9866 24.4595 63.3825L41.3288 1.75669C41.409 1.45719 41.5479 1.17648 41.7376 0.93076C41.9273 0.685045 42.1639 0.479198 42.434 0.325111C42.704 0.171025 43.002 0.071751 43.3107 0.0330288C43.6195 -0.00569343 43.9329 0.0169056 44.2329 0.0995123L92.2984 13.1335C92.9044 13.299 93.4198 13.697 93.7317 14.2403C94.0436 14.7836 94.1265 15.4279 93.9623 16.032Z" fill="#008EA0"/>
<g style="mix-blend-mode:soft-light" opacity="0.5">
<g style="mix-blend-mode:soft-light" opacity="0.5">
<path d="M87.9421 11.9479L32.5542 33.7953L34.7602 25.7205L77.1238 9.01221L87.9421 11.9479Z" fill="white"/>
</g>
<g style="mix-blend-mode:soft-light" opacity="0.5">
<path d="M93.9621 16.0319L90.8462 27.3714L27.4692 52.3718L31.7941 36.5821L91.6751 12.9658L92.2983 13.1334C92.9042 13.2989 93.4196 13.6969 93.7315 14.2402C94.0434 14.7835 94.1263 15.4278 93.9621 16.0319Z" fill="white"/>
</g>
</g>
<g style="mix-blend-mode:multiply">
<path d="M87.4065 39.9771L77.0992 77.6576C76.933 78.2611 76.5334 78.7745 75.9879 79.0851C75.4423 79.3957 74.7955 79.4783 74.1889 79.3148L26.1234 66.2808C25.5174 66.1153 25.0019 65.7173 24.6901 65.174C24.3782 64.6307 24.2953 63.9864 24.4595 63.3823L27.2638 53.1289C31.3082 54.6868 35.7452 55.4068 40.0638 55.9964C49.7168 57.306 59.8559 58.1625 68.9293 54.6496C76.3825 51.7573 82.3214 46.2333 87.4065 39.9771Z" fill="#C7F0F2"/>
</g>
<path d="M59.4885 12.0098L47.4113 8.73271C46.0709 8.37057 44.641 8.55358 43.4361 9.24149C42.2312 9.9294 41.35 11.0658 40.9864 12.4008C40.6228 13.7358 40.8065 15.16 41.4972 16.3601C42.1879 17.5601 43.3289 18.4377 44.6693 18.7999L56.7403 22.077C57.4019 22.2567 58.0926 22.3049 58.773 22.2187C59.4533 22.1326 60.1099 21.9138 60.7054 21.575C61.3009 21.2361 61.8235 20.7837 62.2434 20.2436C62.6633 19.7036 62.9723 19.0865 63.1527 18.4275C63.3332 17.7685 63.3816 17.0806 63.2951 16.403C63.2086 15.7254 62.9889 15.0714 62.6487 14.4783C62.3084 13.8853 61.8542 13.3648 61.312 12.9466C60.7698 12.5283 60.1501 12.2206 59.4885 12.0409V12.0098Z" fill="#8ACBD1"/>
<path d="M47.3053 9.63285C46.7579 9.4845 46.1864 9.44501 45.6236 9.51663C45.0608 9.58825 44.5176 9.76958 44.0252 10.0503C43.5327 10.3309 43.1006 10.7055 42.7535 11.1525C42.4064 11.5995 42.151 12.1102 42.0021 12.6555C41.8532 13.2008 41.8135 13.7699 41.8854 14.3305C41.9573 14.891 42.1394 15.432 42.4212 15.9224C42.703 16.4129 43.0791 16.8433 43.5279 17.189C43.9767 17.5347 44.4895 17.789 45.037 17.9373L50.9384 19.5449L53.2068 11.2342L47.3053 9.63285Z" fill="#EF8181"/>
<path d="M59.1208 12.8419C59.6683 12.9906 60.181 13.2453 60.6296 13.5914C61.0783 13.9375 61.4541 14.3683 61.7356 14.859C62.0172 15.3498 62.1989 15.8909 62.2704 16.4516C62.342 17.0123 62.3019 17.5816 62.1525 18.1269C62.0032 18.6721 61.7475 19.1828 61.4 19.6296C61.0525 20.0765 60.62 20.4508 60.1273 20.7312C59.6345 21.0116 59.0912 21.1925 58.5282 21.2638C57.9652 21.335 57.3937 21.2951 56.8462 21.1464L50.9385 19.5451L53.2068 11.2344L59.1208 12.8419Z" fill="#C7F1F2"/>
<g style="mix-blend-mode:multiply">
<path d="M57.6999 18.0304L51.7922 16.429L45.8845 14.8215C45.0547 14.5955 44.3114 14.1281 43.7497 13.4791C43.188 12.8301 42.8334 12.029 42.7312 11.1782C42.3035 11.7396 42.0206 12.3968 41.9074 13.0924C41.7941 13.7879 41.8539 14.5005 42.0815 15.1677C42.3091 15.8349 42.6976 16.4363 43.2128 16.9192C43.7281 17.402 44.3545 17.7516 45.037 17.9373L50.9384 19.5448L56.8461 21.1461C57.529 21.3322 58.2473 21.3483 58.9379 21.1929C59.6285 21.0375 60.2701 20.7154 60.8063 20.255C61.3424 19.7945 61.7568 19.2099 62.0127 18.5524C62.2686 17.895 62.3584 17.185 62.274 16.4849C61.7535 17.1678 61.0398 17.6799 60.2246 17.9553C59.4094 18.2307 58.5301 18.2569 57.6999 18.0304Z" fill="#DBB8B8"/>
</g>
<path d="M55.6992 25.8945L43.6282 22.6174C42.9666 22.4376 42.2759 22.3895 41.5955 22.4756C40.9152 22.5617 40.2586 22.7805 39.6631 23.1194C39.0677 23.4583 38.5451 23.9107 38.1251 24.4507C37.7052 24.9908 37.3962 25.6079 37.2158 26.2669C37.0353 26.9258 36.9869 27.6138 37.0734 28.2914C37.1599 28.969 37.3796 29.623 37.7198 30.216C38.0601 30.8091 38.5143 31.3296 39.0565 31.7478C39.5988 32.166 40.2184 32.4738 40.88 32.6535L52.951 35.9306C54.2872 36.2936 55.7135 36.113 56.9161 35.4286C58.1187 34.7442 58.999 33.612 59.3634 32.2811C59.7279 30.9502 59.5466 29.5297 58.8594 28.3319C58.1722 27.1342 57.0354 26.2574 55.6992 25.8945Z" fill="#8ACBD1"/>
<path d="M43.5037 23.5174C42.9554 23.3691 42.3832 23.3297 41.8196 23.4017C41.256 23.4736 40.7122 23.6554 40.2192 23.9366C39.7262 24.2179 39.2936 24.5931 38.9461 25.0409C38.5987 25.4886 38.3432 26.0001 38.1943 26.5462C38.0453 27.0923 38.0058 27.6623 38.0781 28.2236C38.1503 28.7849 38.3328 29.3265 38.6152 29.8176C38.8976 30.3086 39.2743 30.7394 39.7239 31.0855C40.1735 31.4315 40.6871 31.686 41.2354 31.8343L47.1431 33.4418L49.4115 25.1373L43.5037 23.5174Z" fill="#EF8181"/>
<path d="M55.3192 26.7258C55.8666 26.8746 56.3793 27.1293 56.828 27.4754C57.2767 27.8215 57.6525 28.2522 57.934 28.7429C58.2155 29.2337 58.3972 29.7749 58.4688 30.3356C58.5403 30.8963 58.5003 31.4655 58.3509 32.0108C58.2016 32.5561 57.9458 33.0667 57.5983 33.5136C57.2508 33.9604 56.8184 34.3347 56.3256 34.6151C55.8329 34.8955 55.2895 35.0765 54.7266 35.1477C54.1636 35.219 53.592 35.1791 53.0445 35.0303L47.1431 33.429L49.4114 25.1245L55.3192 26.7258Z" fill="#C7F1F2"/>
<g style="mix-blend-mode:multiply">
<path d="M53.8986 31.9147L47.9909 30.3134L42.0894 28.7307C41.258 28.5077 40.5129 28.0412 39.9507 27.3916C39.3885 26.742 39.0351 25.9393 38.9362 25.0874C38.5961 25.5269 38.3462 26.0289 38.2008 26.5646C38.0516 27.1099 38.0117 27.6791 38.0835 28.2397C38.1553 28.8004 38.3374 29.3414 38.6192 29.8319C38.901 30.3224 39.2772 30.7529 39.7262 31.0985C40.1751 31.4442 40.688 31.6983 41.2357 31.8464L47.1434 33.454L53.0449 35.0553C53.7277 35.2414 54.446 35.2575 55.1366 35.1021C55.8272 34.9467 56.4688 34.6246 57.005 34.1642C57.5412 33.7037 57.9555 33.119 58.2114 32.4616C58.4674 31.8042 58.5571 31.0942 58.4727 30.3941C57.9491 31.0725 57.234 31.5798 56.419 31.8507C55.604 32.1216 54.7264 32.1439 53.8986 31.9147Z" fill="#DBB8B8"/>
</g>
<path d="M51.8857 39.7788L39.8148 36.5016C38.4785 36.1387 37.0522 36.3193 35.8496 37.0037C34.6471 37.6881 33.7667 38.8203 33.4023 40.1511C33.0379 41.482 33.2192 42.9026 33.9064 44.1003C34.5935 45.298 35.7303 46.1748 37.0666 46.5378L49.1375 49.8335C49.7991 50.0132 50.4898 50.0614 51.1702 49.9753C51.8505 49.8891 52.5072 49.6704 53.1026 49.3315C53.6981 48.9926 54.2207 48.5402 54.6406 48.0002C55.0605 47.4601 55.3695 46.843 55.55 46.184C55.7304 45.525 55.7788 44.8371 55.6923 44.1595C55.6058 43.4819 55.3862 42.8279 55.0459 42.2349C54.7056 41.6418 54.2514 41.1213 53.7092 40.7031C53.167 40.2848 52.5473 39.9771 51.8857 39.7974V39.7788Z" fill="#8ACBD1"/>
<path d="M39.7087 37.4203C39.1612 37.2715 38.5897 37.2316 38.0267 37.3029C37.4637 37.3741 36.9204 37.5551 36.4276 37.8355C35.9349 38.1159 35.5024 38.4902 35.1549 38.937C34.8074 39.3839 34.5517 39.8945 34.4024 40.4398C34.253 40.9851 34.2129 41.5543 34.2845 42.115C34.356 42.6757 34.5377 43.2169 34.8192 43.7077C35.1008 44.1984 35.4766 44.6291 35.9252 44.9752C36.3739 45.3213 36.8866 45.576 37.4341 45.7248L43.3418 47.3323L45.6102 39.0278L39.7087 37.4203Z" fill="#EF8181"/>
<path d="M51.5179 40.6101C52.6236 40.9097 53.5645 41.6345 54.1336 42.625C54.7028 43.6156 54.8535 44.7907 54.5527 45.892C54.2519 46.9932 53.5242 47.9303 52.5296 48.4972C51.5351 49.064 50.3552 49.2142 49.2495 48.9146L43.3418 47.3133L45.6101 39.0088L51.5179 40.6101Z" fill="#C7F1F2"/>
<g style="mix-blend-mode:multiply">
<path d="M50.0906 45.7989L44.1891 44.1976L38.2814 42.5963C37.4503 42.3706 36.706 41.9025 36.144 41.2521C35.5821 40.6018 35.2283 39.7989 35.1282 38.9468C34.6973 39.5067 34.4117 40.1637 34.2963 40.8597C34.181 41.5558 34.2396 42.2694 34.4669 42.9375C34.6942 43.6056 35.0832 44.2077 35.5996 44.6905C36.116 45.1733 36.7438 45.522 37.4277 45.7058L43.3354 47.3133L49.2431 48.9146C49.7906 49.0633 50.3621 49.1029 50.925 49.0314C51.4879 48.9599 52.0311 48.7787 52.5237 48.4979C53.0162 48.2172 53.4483 47.8426 53.7954 47.3955C54.1424 46.9483 54.3976 46.4374 54.5463 45.892C54.6935 45.3589 54.7337 44.8021 54.6647 44.2535C54.1442 44.9363 53.4305 45.4484 52.6153 45.7238C51.8001 45.9993 50.9208 46.0254 50.0906 45.7989Z" fill="#DBB8B8"/>
</g>
<path d="M48.0839 53.663L36.013 50.3859C35.3514 50.2062 34.6606 50.158 33.9803 50.2442C33.3 50.3303 32.6433 50.5491 32.0479 50.8879C31.4524 51.2268 30.9298 51.6792 30.5099 52.2193C30.09 52.7593 29.781 53.3764 29.6005 54.0354C29.4201 54.6944 29.3717 55.3823 29.4582 56.0599C29.5447 56.7375 29.7643 57.3915 30.1046 57.9846C30.4448 58.5776 30.8991 59.0981 31.4413 59.5164C31.9835 59.9346 32.6031 60.2423 33.2648 60.4221L45.3419 63.6992C46.6702 64.037 48.0785 63.8411 49.263 63.1538C50.4475 62.4665 51.3132 61.3428 51.6731 60.0254C52.0331 58.7079 51.8584 57.3023 51.1869 56.112C50.5154 54.9217 49.4009 54.0421 48.0839 53.663Z" fill="#8ACBD1"/>
<path d="M35.9074 51.2855C34.8017 50.9851 33.6215 51.1345 32.6263 51.7007C31.6312 52.267 30.9027 53.2038 30.6011 54.3051C30.2995 55.4063 30.4494 56.5818 31.018 57.5729C31.5865 58.564 32.5271 59.2896 33.6328 59.59L39.5405 61.1975L41.8151 52.893L35.9074 51.2855Z" fill="#EF8181"/>
<path d="M47.7228 54.4944C48.8285 54.7948 49.7691 55.5204 50.3377 56.5115C50.9062 57.5026 51.0562 58.6781 50.7546 59.7793C50.4529 60.8806 49.7244 61.8174 48.7293 62.3837C47.7342 62.9499 46.5539 63.0993 45.4482 62.7989L39.5405 61.1976L41.8151 52.8931L47.7228 54.4944Z" fill="#C7F1F2"/>
<g style="mix-blend-mode:multiply">
<path d="M46.3018 59.6833L40.3941 58.082L34.5113 56.4807C33.6815 56.2547 32.9382 55.7873 32.3765 55.1383C31.8148 54.4893 31.4602 53.6882 31.358 52.8374C31.0188 53.2743 30.7708 53.7745 30.6289 54.3084C30.4787 54.8533 30.438 55.4223 30.509 55.9829C30.58 56.5435 30.7614 57.0846 31.0427 57.5753C31.3241 58.0659 31.6999 58.4965 32.1486 58.8422C32.5973 59.188 33.1101 59.4422 33.6576 59.5902L39.5653 61.1977L45.473 62.7991C46.0205 62.9477 46.592 62.9874 47.1549 62.9159C47.7178 62.8444 48.261 62.6631 48.7535 62.3824C49.2461 62.1016 49.6782 61.727 50.0253 61.2799C50.3723 60.8327 50.6275 60.3219 50.7762 59.7764C50.9234 59.2433 50.9636 58.6865 50.8946 58.1379C50.3734 58.825 49.6565 59.3398 48.8373 59.6155C48.0182 59.8911 47.1347 59.9147 46.3018 59.6833Z" fill="#DBB8B8"/>
</g>
<path d="M85.1508 18.9803L73.0799 15.6969C72.4183 15.5172 71.7275 15.4691 71.0472 15.5552C70.3669 15.6413 69.7102 15.8601 69.1148 16.199C68.5193 16.5379 67.9967 16.9903 67.5768 17.5303C67.1569 18.0703 66.8479 18.6875 66.6674 19.3465C66.487 20.0054 66.4386 20.6934 66.5251 21.371C66.6116 22.0486 66.8312 22.7026 67.1715 23.2956C67.5117 23.8887 67.966 24.4092 68.5082 24.8274C69.0504 25.2456 69.6701 25.5534 70.3317 25.7331L82.4088 29.0102C83.0743 29.2017 83.7713 29.2595 84.4594 29.1801C85.1475 29.1008 85.8128 28.8859 86.4167 28.5479C87.0206 28.21 87.5509 27.7558 87.9768 27.2118C88.4028 26.6678 88.7158 26.0448 88.8976 25.3791C89.0795 24.7134 89.1266 24.0184 89.0362 23.3344C88.9457 22.6505 88.7196 21.9912 88.3709 21.3952C88.0222 20.7991 87.5579 20.278 87.0051 19.8624C86.4523 19.4467 85.822 19.1448 85.1508 18.9741V18.9803Z" fill="#8ACBD1"/>
<path d="M72.9738 16.6029C71.8681 16.3025 70.6879 16.4519 69.6928 17.0181C68.6976 17.5844 67.9691 18.5212 67.6675 19.6224C67.3659 20.7237 67.5158 21.8992 68.0844 22.8903C68.653 23.8814 69.5935 24.607 70.6992 24.9074L76.6069 26.5087L78.8816 18.1794L72.9738 16.6029Z" fill="#EF8181"/>
<path d="M84.7894 19.8058C85.8733 20.1277 86.7875 20.8596 87.336 21.8447C87.8846 22.8299 88.0238 23.9898 87.7238 25.076C87.4239 26.1622 86.7086 27.0881 85.7314 27.6553C84.7542 28.2225 83.5928 28.3858 82.4961 28.1103L76.5884 26.5028L78.8817 18.1797L84.7894 19.8058Z" fill="#C7F1F2"/>
<g style="mix-blend-mode:multiply">
<path d="M83.3685 25.0069L77.4608 23.3994L71.553 21.7981C70.7228 21.5728 69.9791 21.1056 69.4173 20.4565C68.8554 19.8073 68.5011 19.0058 68.3998 18.1548C68.0651 18.5945 67.8177 19.0938 67.6706 19.6258C67.3689 20.727 67.5184 21.9025 68.0863 22.894C68.6541 23.8855 69.594 24.612 70.6993 24.9138L76.607 26.5151L82.496 28.1102C83.1786 28.2932 83.8958 28.307 84.585 28.1503C85.2742 27.9937 85.9144 27.6715 86.4497 27.2117C86.9851 26.752 87.3993 26.1687 87.6563 25.5129C87.9133 24.857 88.0051 24.1484 87.9239 23.449C87.402 24.1255 86.6917 24.6339 85.8816 24.9109C85.0715 25.188 84.1975 25.2213 83.3685 25.0069Z" fill="#DBB8B8"/>
</g>
<path d="M81.3553 32.8642L69.2781 29.587C67.9499 29.2492 66.5415 29.4451 65.357 30.1324C64.1725 30.8197 63.3068 31.9434 62.9469 33.2608C62.587 34.5783 62.7616 35.9839 63.4331 37.1742C64.1046 38.3645 65.2191 39.2441 66.5361 39.6232L78.6071 42.9003C79.2687 43.08 79.9594 43.1282 80.6398 43.042C81.3201 42.9559 81.9767 42.7372 82.5722 42.3983C83.1677 42.0594 83.6903 41.607 84.1102 41.0669C84.5301 40.5269 84.8391 39.9098 85.0195 39.2508C85.2 38.5918 85.2483 37.9039 85.1619 37.2263C85.0754 36.5487 84.8557 35.8947 84.5155 35.3016C84.1752 34.7086 83.721 34.1881 83.1788 33.7699C82.6365 33.3516 82.0169 33.0439 81.3553 32.8642Z" fill="#8ACBD1"/>
<path d="M69.1725 30.4872C68.0668 30.1892 66.8875 30.341 65.8942 30.909C64.9008 31.477 64.1746 32.4148 63.8755 33.516C63.5763 34.6173 63.7287 35.7918 64.299 36.7811C64.8693 37.7705 65.8109 38.4937 66.9166 38.7917L72.8243 40.393L75.0989 32.0885L69.1725 30.4872Z" fill="#EF8181"/>
<path d="M80.988 33.6959C82.0937 33.9963 83.0343 34.7219 83.6028 35.713C84.1714 36.7041 84.3214 37.8796 84.0197 38.9809C83.7181 40.0821 82.9896 41.0189 81.9944 41.5852C80.9993 42.1514 79.8191 42.3008 78.7134 42.0004L72.8057 40.3929L75.0803 32.0884L80.988 33.6959Z" fill="#C7F1F2"/>
<g style="mix-blend-mode:multiply">
<path d="M79.5669 38.8848L73.6592 37.2773L67.7515 35.676C66.9217 35.45 66.1784 34.9826 65.6167 34.3336C65.055 33.6846 64.7004 32.8835 64.5982 32.0327C64.1706 32.5949 63.8882 33.253 63.7757 33.9493C63.6631 34.6456 63.724 35.3587 63.9529 36.0261C64.1818 36.6935 64.5717 37.2947 65.0885 37.7769C65.6052 38.2592 66.2329 38.6076 66.9164 38.7918L72.8241 40.3931L78.7318 42.0006C79.8375 42.299 81.0169 42.1483 82.0111 41.5816C83.0054 41.015 83.7333 40.0786 84.0351 38.9779C84.184 38.4452 84.2264 37.8884 84.1597 37.3394C83.6368 38.0245 82.9198 38.5378 82.1012 38.8133C81.2825 39.0888 80.3999 39.1137 79.5669 38.8848Z" fill="#DBB8B8"/>
</g>
<path d="M77.5542 46.7299L65.4832 43.4528C64.147 43.0899 62.7207 43.2704 61.5181 43.9549C60.3155 44.6393 59.4352 45.7715 59.0707 47.1023C58.7063 48.4332 58.8876 49.8538 59.5748 51.0515C60.262 52.2492 61.3988 53.126 62.735 53.489L74.8059 56.7661C75.4676 56.9458 76.1583 56.994 76.8386 56.9078C77.519 56.8217 78.1756 56.6029 78.7711 56.264C79.3665 55.9252 79.8891 55.4728 80.3091 54.9327C80.729 54.3927 81.038 53.7755 81.2184 53.1166C81.3989 52.4576 81.4472 51.7697 81.3607 51.0921C81.2743 50.4145 81.0546 49.7605 80.7144 49.1674C80.3741 48.5744 79.9199 48.0539 79.3777 47.6356C78.8354 47.2174 78.2158 46.9097 77.5542 46.7299Z" fill="#8ACBD1"/>
<path d="M65.3713 44.3716C64.8238 44.2233 64.2523 44.1838 63.6895 44.2554C63.1267 44.327 62.5835 44.5084 62.0911 44.789C61.5986 45.0697 61.1665 45.4442 60.8194 45.8912C60.4723 46.3383 60.217 46.849 60.068 47.3943C59.9191 47.9395 59.8794 48.5087 59.9513 49.0692C60.0233 49.6298 60.2053 50.1707 60.4871 50.6612C60.7689 51.1516 61.145 51.582 61.5938 51.9277C62.0426 52.2735 62.5554 52.5278 63.1029 52.6761L69.0106 54.2774L71.279 45.9729L65.3713 44.3716Z" fill="#EF8181"/>
<path d="M77.1863 47.5802C77.7338 47.7289 78.2465 47.9836 78.6952 48.3297C79.1439 48.6758 79.5197 49.1065 79.8012 49.5973C80.0827 50.088 80.2644 50.6292 80.336 51.1899C80.4075 51.7506 80.3674 52.3198 80.2181 52.8651C80.0687 53.4104 79.813 53.9211 79.4655 54.3679C79.118 54.8148 78.6856 55.1891 78.1928 55.4694C77.7001 55.7498 77.1567 55.9308 76.5938 56.0021C76.0308 56.0733 75.4592 56.0334 74.9117 55.8847L69.0103 54.2771L71.2786 45.9727L77.1863 47.5802Z" fill="#C7F1F2"/>
<g style="mix-blend-mode:multiply">
<path d="M75.7658 52.7691L69.8581 51.1678L63.9504 49.5603C63.1209 49.3347 62.3781 48.8673 61.8173 48.2181C61.2565 47.5689 60.9034 46.7676 60.8033 45.917C60.4632 46.3565 60.2134 46.8585 60.068 47.3942C59.9188 47.9395 59.8789 48.5087 59.9507 49.0693C60.0225 49.6299 60.2045 50.171 60.4864 50.6615C60.7682 51.152 61.1444 51.5824 61.5933 51.9281C62.0423 52.2738 62.5552 52.5279 63.1029 52.676L69.0106 54.2773L74.912 55.8849C75.5949 56.071 76.3132 56.0871 77.0038 55.9317C77.6944 55.7763 78.336 55.4542 78.8722 54.9937C79.4083 54.5333 79.8226 53.9486 80.0786 53.2912C80.3345 52.6338 80.4243 51.9238 80.3399 51.2237C79.8183 51.9052 79.1045 52.4163 78.2897 52.6916C77.4748 52.9669 76.5961 52.9939 75.7658 52.7691Z" fill="#DBB8B8"/>
</g>
<path d="M73.7714 60.6328L61.7005 57.3556C60.3643 56.9927 58.938 57.1733 57.7354 57.8577C56.5328 58.5421 55.6525 59.6743 55.288 61.0052C54.9236 62.336 55.1049 63.7566 55.7921 64.9543C56.4793 66.152 57.6161 67.0288 58.9523 67.3918L71.0232 70.6689C71.6849 70.8486 72.3756 70.8968 73.0559 70.8107C73.7363 70.7245 74.3929 70.5058 74.9884 70.1669C75.5838 69.828 76.1064 69.3756 76.5263 68.8356C76.9463 68.2955 77.2553 67.6784 77.4357 67.0194C77.6162 66.3604 77.6645 65.6725 77.578 64.9949C77.4915 64.3173 77.2719 63.6633 76.9316 63.0702C76.5914 62.4772 76.1372 61.9567 75.5949 61.5385C75.0527 61.1202 74.4331 60.8125 73.7714 60.6328Z" fill="#8ACBD1"/>
<path d="M61.5758 58.2557C61.0262 58.1069 60.4527 58.0674 59.8878 58.1395C59.323 58.2115 58.7779 58.3936 58.2837 58.6754C57.7895 58.9573 57.3559 59.3333 57.0076 59.782C56.6593 60.2307 56.4032 60.7434 56.2538 61.2907C56.1045 61.838 56.0648 62.4093 56.1372 62.9719C56.2095 63.5345 56.3923 64.0773 56.6753 64.5695C56.9583 65.0617 57.3358 65.4936 57.7864 65.8405C58.2369 66.1874 58.7516 66.4424 59.3012 66.5912L65.2089 68.1925L67.4772 59.888L61.5758 58.2557Z" fill="#EF8181"/>
<path d="M73.3851 61.4645C73.9325 61.6128 74.4453 61.8671 74.8941 62.2128C75.343 62.5585 75.719 62.9889 76.0008 63.4794C76.2826 63.9698 76.4647 64.5108 76.5366 65.0713C76.6085 65.6319 76.5689 66.201 76.4199 66.7463C76.271 67.2916 76.0157 67.8023 75.6685 68.2493C75.3214 68.6963 74.8893 69.0709 74.3968 69.3515C73.9044 69.6322 73.3613 69.8135 72.7985 69.8852C72.2356 69.9568 71.6642 69.9173 71.1167 69.7689L65.209 68.1614L67.4773 59.8569L73.3851 61.4645Z" fill="#C7F1F2"/>
<g style="mix-blend-mode:multiply">
<path d="M71.9641 66.6534L66.0564 65.0521L60.1549 63.4446C59.3243 63.22 58.5801 62.7531 58.0182 62.1038C57.4562 61.4545 57.1022 60.6526 57.0016 59.8013C56.6615 60.2408 56.4117 60.7428 56.2663 61.2785C55.9667 62.3797 56.1179 63.5543 56.6869 64.5445C57.2559 65.5348 58.1961 66.2597 59.3012 66.5603L65.2089 68.1616L71.1166 69.7691C71.7992 69.9556 72.5173 69.9719 73.2077 69.8166C73.8981 69.6612 74.5396 69.339 75.0753 68.8784C75.6111 68.4178 76.0248 67.8328 76.28 67.1753C76.5351 66.5177 76.6238 65.8077 76.5382 65.1079C76.0166 65.7895 75.3028 66.3006 74.488 66.5759C73.6731 66.8512 72.7944 66.8782 71.9641 66.6534Z" fill="#DBB8B8"/>
</g>
<path d="M118.472 51.1121L119.587 47.8908L101.895 41.7959L100.774 45.0171C98.9449 44.3879 96.9401 44.5079 95.2 45.3505C93.46 46.1932 92.1271 47.6896 91.4946 49.5108L74.0955 99.6294C73.8372 100.375 73.7291 101.163 73.7773 101.95C73.8255 102.738 74.029 103.507 74.3764 104.216C74.7237 104.924 75.2079 105.558 75.8013 106.08C76.3947 106.602 77.0856 107.002 77.8346 107.257L97.932 114.184C98.6803 114.441 99.4723 114.549 100.262 114.501C101.053 114.453 101.826 114.25 102.537 113.904C103.248 113.558 103.884 113.076 104.408 112.485C104.932 111.894 105.334 111.206 105.591 110.46L123.002 60.3848C123.319 59.4798 123.452 58.5215 123.396 57.5649C123.339 56.6083 123.093 55.6723 122.672 54.8107C122.251 53.949 121.663 53.1787 120.942 52.544C120.222 51.9093 119.382 51.4227 118.472 51.1121Z" fill="#EF8181"/>
<path d="M119.977 65.4928L91.3428 55.6284L77.4621 95.5971L106.096 105.462L119.977 65.4928Z" fill="#D85B5B"/>
<g style="mix-blend-mode:soft-light" opacity="0.5">
<path d="M79.8724 101.616L97.2714 51.4969C97.9066 49.6779 99.2401 48.184 100.98 47.3428C102.719 46.5016 104.722 46.3817 106.551 47.0095L107.672 43.782L101.895 41.7959L100.774 45.0171C98.9449 44.3879 96.9401 44.5079 95.2 45.3505C93.46 46.1932 92.1271 47.6896 91.4946 49.5108L74.0955 99.6294C73.8372 100.375 73.7291 101.163 73.7773 101.951C73.8255 102.738 74.029 103.507 74.3764 104.216C74.7237 104.924 75.2079 105.558 75.8013 106.08C76.3947 106.602 77.0856 107.002 77.8346 107.257L83.6114 109.25C82.8623 108.993 82.1712 108.593 81.5777 108.07C80.9843 107.548 80.5 106.914 80.1528 106.205C79.8055 105.496 79.602 104.725 79.5539 103.938C79.5057 103.15 79.614 102.361 79.8724 101.616Z" fill="white"/>
</g>
<g style="mix-blend-mode:multiply">
<path d="M118.472 51.112L119.587 47.8907L112.502 45.4453L111.38 48.6728C113.205 49.3029 114.706 50.6283 115.551 52.3585C116.397 54.0886 116.52 56.0822 115.892 57.9021L98.4864 108.021C98.2291 108.767 97.8266 109.455 97.302 110.046C96.7774 110.637 96.1409 111.12 95.429 111.465C94.7171 111.811 93.9437 112.014 93.1531 112.062C92.3624 112.11 91.5701 112.002 90.8213 111.745L97.913 114.19C98.6614 114.447 99.4533 114.555 100.244 114.507C101.034 114.459 101.807 114.256 102.518 113.91C103.229 113.564 103.865 113.082 104.389 112.491C104.913 111.9 105.315 111.212 105.572 110.466L123.002 60.3847C123.318 59.4797 123.452 58.5214 123.395 57.5648C123.339 56.6083 123.093 55.6722 122.672 54.8106C122.251 53.949 121.663 53.1787 120.942 52.5439C120.221 51.9092 119.382 51.4226 118.472 51.112Z" fill="#DBB8B8"/>
</g>
<path d="M123.626 44.924L101.241 37.2092C101.108 37.1638 100.984 37.0926 100.879 36.9996C100.773 36.9067 100.686 36.7938 100.624 36.6675C100.562 36.5412 100.526 36.404 100.518 36.2637C100.509 36.1234 100.528 35.9828 100.575 35.8499C100.668 35.5808 100.865 35.3596 101.122 35.2351C101.379 35.1106 101.675 35.0928 101.945 35.1858L124.33 42.8945C124.6 42.9875 124.822 43.1836 124.947 43.4397C125.072 43.6957 125.09 43.9908 124.997 44.2599C124.903 44.5291 124.706 44.7502 124.449 44.8748C124.192 44.9993 123.896 45.017 123.626 44.924Z" fill="#C7F1F2"/>
<path d="M125.445 44.1356L100.281 35.4463C100.18 35.4103 100.073 35.3948 99.9661 35.4006C99.859 35.4065 99.7541 35.4337 99.6577 35.4805C99.5613 35.5274 99.4753 35.5929 99.4048 35.6734C99.3342 35.7539 99.2805 35.8476 99.2469 35.9491L97.4085 41.2309C97.3029 41.5404 97.3242 41.879 97.4677 42.173C97.6112 42.467 97.8654 42.6927 98.175 42.8012L122.541 51.1988C122.852 51.3039 123.192 51.2827 123.487 51.1398C123.782 50.9969 124.009 50.7437 124.118 50.4354L125.95 45.1473C126.014 44.9464 125.997 44.7286 125.903 44.5399C125.809 44.3512 125.645 44.2062 125.445 44.1356Z" fill="#8ACBD1"/>
<g style="mix-blend-mode:multiply">
<path d="M125.445 44.1358L117.076 41.2559C117.177 41.2907 117.271 41.3453 117.352 41.4163C117.432 41.4873 117.497 41.5734 117.544 41.6697C117.591 41.766 117.619 41.8706 117.625 41.9774C117.631 42.0843 117.616 42.1913 117.581 42.2924L115.742 47.5742C115.633 47.8812 115.408 48.1332 115.114 48.276C114.82 48.4188 114.482 48.4409 114.172 48.3376L122.541 51.2237C122.852 51.3289 123.192 51.3077 123.487 51.1648C123.782 51.0218 124.009 50.7687 124.118 50.4603L125.95 45.1723C125.985 45.0712 126 44.9642 125.994 44.8573C125.988 44.7505 125.961 44.6459 125.914 44.5496C125.867 44.4533 125.801 44.3672 125.721 44.2962C125.64 44.2251 125.547 44.1706 125.445 44.1358Z" fill="#C7F0F2"/>
</g>
<g style="mix-blend-mode:multiply">
<path d="M118.865 49.9595L101.173 43.8647L100.772 45.0203L118.463 51.115L118.865 49.9595Z" fill="#DEFBFC"/>
</g>
<path d="M30.7722 48.0337L29.0834 44.0986L7.47782 53.2907L9.16662 57.2257C6.93479 58.1767 5.17323 59.9712 4.26885 62.2149C3.36446 64.4586 3.39122 66.968 4.34324 69.1921L23.749 114.432C24.1388 115.342 24.7048 116.165 25.4146 116.856C26.1243 117.548 26.9639 118.093 27.8853 118.46C28.8067 118.828 29.7919 119.011 30.7844 119C31.777 118.988 32.7575 118.782 33.6699 118.392L58.1919 107.959C60.0345 107.173 61.4887 105.691 62.2353 103.839C62.9819 101.986 62.9599 99.9142 62.174 98.0778L42.7683 52.8376C41.8159 50.6172 40.0176 48.8641 37.7683 47.9633C35.519 47.0626 33.0027 47.0879 30.7722 48.0337Z" fill="#C7F1F2"/>
<path d="M36.3689 69.6572L9.45117 81.1089L19.0863 103.575L46.004 92.1228L36.3689 69.6572Z" fill="#8ACBD1"/>
<path d="M47.8873 64.7592L39.5547 68.3042L49.1898 90.7698L57.5225 87.2248L47.8873 64.7592Z" fill="#8ACBD1"/>
<g style="mix-blend-mode:soft-light" opacity="0.5">
<path d="M30.7725 111.428L11.3917 66.1881C10.9196 65.0873 10.6699 63.9048 10.6568 62.7079C10.6437 61.511 10.8675 60.3233 11.3154 59.2126C11.7633 58.1019 12.4266 57.09 13.2673 56.2347C14.108 55.3794 15.1097 54.6975 16.2151 54.2278L14.5263 50.2866L7.47196 53.2906L9.16078 57.2257C6.92895 58.1767 5.16737 59.9711 4.26299 62.2148C3.3586 64.4585 3.38536 66.968 4.33738 69.1921L23.7431 114.432C24.133 115.341 24.699 116.165 25.4087 116.856C26.1185 117.548 26.958 118.093 27.8794 118.46C28.8008 118.828 29.786 119.011 30.7786 119C31.7712 118.988 32.7517 118.782 33.6641 118.392L40.7434 115.394C39.8278 115.79 38.8425 116.002 37.8444 116.017C36.8463 116.032 35.8552 115.849 34.9282 115.481C34.0011 115.112 33.1566 114.564 32.4434 113.868C31.7301 113.173 31.1622 112.344 30.7725 111.428Z" fill="white"/>
</g>
<g style="mix-blend-mode:multiply">
<path d="M30.7725 48.0337L29.0837 44.0986L20.4277 47.7792L22.1103 51.6956C23.215 51.2243 24.4021 50.9746 25.6038 50.9607C26.8054 50.9468 27.998 51.1691 29.1134 51.6147C30.2287 52.0603 31.2449 52.7205 32.1038 53.5577C32.9627 54.3948 33.6475 55.3924 34.1189 56.4933L53.5246 101.734C53.9146 102.643 54.1209 103.62 54.1319 104.608C54.1428 105.597 53.9581 106.578 53.5883 107.495C53.2185 108.413 52.6709 109.249 51.9768 109.956C51.2826 110.662 50.4554 111.226 49.5425 111.615L58.1922 107.959C60.0348 107.173 61.489 105.691 62.2356 103.839C62.9822 101.986 62.9602 99.9142 62.1743 98.0778L42.7686 52.8376C41.8162 50.6172 40.0179 48.8641 37.7686 47.9633C35.5193 47.0626 33.003 47.0879 30.7725 48.0337Z" fill="#C7F0F2"/>
</g>
<path d="M29.2827 35.476L1.89511 47.1277C1.22412 47.4131 0.912524 48.1863 1.19914 48.8546L1.22362 48.9116C1.51023 49.5799 2.28653 49.8903 2.95752 49.6048L30.3452 37.9532C31.0161 37.6677 31.3277 36.8946 31.0411 36.2263L31.0166 36.1692C30.73 35.5009 29.9537 35.1906 29.2827 35.476Z" fill="#8ACBD1"/>
<path d="M31.3456 35.6948L0.623012 48.766C0.498677 48.8181 0.38593 48.8942 0.291284 48.99C0.196638 49.0857 0.121973 49.1992 0.0715712 49.3238C0.0211695 49.4484 -0.00396366 49.5818 -0.00237011 49.7161C-0.00077655 49.8505 0.0275081 49.9832 0.0808519 50.1066L2.84776 56.5615C3.01089 56.939 3.31773 57.2366 3.70093 57.389C4.08414 57.5415 4.51242 57.5363 4.89177 57.3746L34.6422 44.713C34.8297 44.6332 34.9995 44.5174 35.142 44.3722C35.2845 44.2269 35.3968 44.0552 35.4726 43.8667C35.5484 43.6782 35.5862 43.4767 35.5838 43.2737C35.5814 43.0706 35.5388 42.8701 35.4586 42.6834L32.6917 36.2285C32.6387 36.1052 32.5619 35.9936 32.4655 35.9C32.3691 35.8064 32.2551 35.7326 32.13 35.683C32.0049 35.6334 31.8713 35.6089 31.7366 35.611C31.602 35.613 31.4691 35.6414 31.3456 35.6948Z" fill="#008EA0"/>
<g style="mix-blend-mode:multiply">
<path d="M31.3456 35.6948L21.1255 40.0394C21.3761 39.9355 21.6577 39.9339 21.9095 40.0349C22.1614 40.1359 22.3632 40.3315 22.4716 40.5794L25.2385 47.0343C25.3185 47.2213 25.3608 47.4223 25.3628 47.6256C25.3648 47.8289 25.3265 48.0306 25.25 48.2191C25.1736 48.4077 25.0606 48.5793 24.9175 48.7243C24.7743 48.8692 24.6039 48.9846 24.4159 49.0639L34.6422 44.7192C34.8296 44.6394 34.9995 44.5236 35.142 44.3784C35.2844 44.2332 35.3968 44.0614 35.4726 43.8729C35.5484 43.6844 35.5862 43.4829 35.5838 43.2799C35.5814 43.0769 35.5388 42.8763 35.4585 42.6897L32.6916 36.2347C32.6393 36.1109 32.5629 35.9986 32.4667 35.9044C32.3706 35.8101 32.2567 35.7357 32.1315 35.6855C32.0064 35.6353 31.8725 35.6103 31.7376 35.6119C31.6027 35.6135 31.4695 35.6416 31.3456 35.6948Z" fill="#C7F0F2"/>
</g>
<g style="mix-blend-mode:multiply">
<path d="M30.1599 46.6278L8.55469 55.8193L9.15933 57.2291L30.7645 48.0376L30.1599 46.6278Z" fill="#DEFBFC"/>
</g>
</g>
<defs>
<clipPath id="clip0_1_12322">
<rect width="126" height="119" fill="white"/>
</clipPath>
</defs>
</svg>
