<svg width="34" height="34" viewBox="0 0 34 34" fill="none" xmlns="http://www.w3.org/2000/svg">
<path d="M22.3934 21.7957C22.3967 22.0949 22.2771 22.3823 22.0627 22.5912C21.851 22.8024 21.5639 22.921 21.2649 22.921C20.9657 22.921 20.6788 22.8024 20.4669 22.5912L18.1187 20.2427C17.9079 20.0317 17.7896 19.7456 17.7896 19.4473C17.7896 19.1491 17.9079 18.863 18.1187 18.652C18.3132 18.4514 18.5762 18.3317 18.8551 18.3165C19.134 18.3016 19.4084 18.3921 19.6233 18.5702C19.628 18.575 22.1154 21.0479 22.1439 21.0863C22.3052 21.2876 22.3932 21.5378 22.3934 21.7956L22.3934 21.7957Z" fill="#6C7174"/>
<path d="M24.9144 19.7831C24.9176 20.0823 24.7981 20.37 24.5837 20.5787C24.4165 20.7468 24.2006 20.8582 23.9667 20.8967C23.7327 20.9354 23.4925 20.8995 23.2802 20.7942C23.1698 20.7369 19.7722 17.3582 19.7722 17.3582C19.495 17.0726 19.3895 16.6619 19.4944 16.278C19.5994 15.8942 19.8991 15.5945 20.283 15.4895C20.6668 15.3846 21.0773 15.4903 21.3629 15.7673C21.3629 15.7673 24.6697 19.0738 24.7081 19.1248V19.133C24.8409 19.324 24.9128 19.5506 24.9143 19.7832L24.9144 19.7831Z" fill="#6C7174"/>
<path d="M27.0371 16.9123C27.1822 17.129 27.2479 17.3893 27.2224 17.6489C27.197 17.9084 27.0824 18.1513 26.8982 18.3357C26.7269 18.504 26.5068 18.6141 26.2694 18.6501C26.0319 18.6863 25.7892 18.6465 25.5756 18.5368C25.4748 18.4841 21.502 14.5354 21.502 14.5354C21.2169 14.2502 21.1055 13.8347 21.2099 13.4454C21.3142 13.0559 21.6184 12.7517 22.0079 12.6474C22.3972 12.543 22.8127 12.6544 23.0979 12.9395" fill="#6C7174"/>
<path d="M27.7176 16.1845C28.0322 16.3877 28.4272 16.4214 28.7718 16.2746C29.1163 16.1275 29.3655 15.8192 29.4364 15.4513C29.5076 15.0836 29.3915 14.7046 29.1264 14.4399L25.9084 11.2243C25.6414 10.9557 25.2574 10.8392 24.8861 10.9137C24.515 10.9885 24.2059 11.2444 24.0634 11.5952C23.9209 11.946 23.964 12.3451 24.1782 12.6573" fill="#6C7174"/>
<path d="M15.9861 8.9327C13.8916 6.83884 11.745 6.0002 9.86608 6.0002C8.30878 5.9873 6.81026 6.59442 5.70108 7.68748C3.58745 9.79596 2.99818 13.7497 6.55108 17.5829L13.8611 10.3468C14.0499 10.1616 14.3521 10.1616 14.5411 10.3468L14.8287 10.634C15.6197 11.425 17.0812 11.4679 18.0876 10.8112L15.9861 8.9327ZM6.97171 15.8818C6.75162 16.0268 6.45675 15.974 6.30065 15.7621C4.93496 13.7925 4.59457 11.7177 5.33796 9.92478C5.44307 9.68743 5.71818 9.57681 5.95856 9.67547C6.19876 9.77413 6.31677 10.0462 6.22456 10.2891C5.61077 11.7766 5.91777 13.5242 7.092 15.2108C7.24075 15.4298 7.18725 15.7281 6.97171 15.8818ZM6.69793 9.06724C6.50402 9.06724 6.32928 8.95037 6.25509 8.77126C6.18091 8.59215 6.22189 8.38591 6.35887 8.24892C6.49605 8.11175 6.70229 8.07076 6.88141 8.14495C7.06052 8.21914 7.17739 8.39388 7.17739 8.58779C7.17796 8.7151 7.12749 8.83747 7.03756 8.92741C6.94743 9.01753 6.82524 9.06781 6.69793 9.06724Z" fill="#6C7174"/>
<path d="M28.5706 12.5229L26.5884 10.5438C26.1949 10.1544 25.6637 9.93624 25.11 9.93624C24.5566 9.93624 24.0253 10.1544 23.6316 10.5438C23.3024 10.879 23.0933 11.3135 23.0366 11.7801C22.531 11.5896 21.9712 11.6027 21.4749 11.8163C20.9786 12.0299 20.5845 12.4276 20.3752 12.9257C20.166 13.4239 20.158 13.9838 20.3528 14.4877C19.6956 14.556 19.1095 14.9317 18.7733 15.5005C18.4369 16.0694 18.39 16.7638 18.6467 17.3726C18.1903 17.4371 17.7666 17.6474 17.4389 17.9718C17.049 18.3642 16.8303 18.8949 16.8303 19.4479C16.8303 20.001 17.049 20.5317 17.4389 20.9239L19.7884 23.272C19.8755 23.3553 19.9682 23.4321 20.0663 23.502L15.9112 27.582H15.911C15.5883 27.7935 15.1851 27.8419 14.8215 27.7129C14.4578 27.5837 14.1753 27.2921 14.058 26.9244C13.941 26.5567 14.0025 26.1552 14.2243 25.8395L17.3634 22.7009C17.4531 22.6114 17.5034 22.4898 17.5034 22.363C17.5034 22.2363 17.4531 22.1147 17.3634 22.0251C17.1752 21.8384 16.8716 21.8384 16.6834 22.0251L13.4869 25.2164V25.2215C13.1872 25.5481 12.7362 25.6898 12.3036 25.5936C11.871 25.4972 11.5229 25.1775 11.3899 24.7548C11.2571 24.3321 11.3597 23.8706 11.6595 23.5441C11.6688 23.5393 14.8508 20.3239 14.8508 20.3239V20.3238C14.9407 20.2338 14.9912 20.1116 14.9908 19.9845C14.9904 19.8572 14.9392 19.7352 14.8487 19.6458C14.758 19.5565 14.6356 19.507 14.5083 19.5081C14.381 19.5094 14.2594 19.5616 14.1708 19.6529L10.9743 22.8736V22.8734C10.6626 23.1859 10.208 23.3083 9.78166 23.1946C9.35514 23.081 9.02176 22.7484 8.90718 22.3222C8.79239 21.8961 8.91363 21.4413 9.22536 21.1288C9.2301 21.1195 12.4694 17.8796 12.4694 17.8796C12.6559 17.6931 12.6559 17.3905 12.4694 17.204C12.2827 17.0173 11.9803 17.0173 11.7936 17.204L8.54439 20.4484H8.54458C8.23607 20.7344 7.80347 20.8442 7.39611 20.7399C6.98856 20.6355 6.66205 20.3316 6.52886 19.9326C6.39586 19.5335 6.4746 19.0943 6.73776 18.7663C6.7666 18.7327 14.1993 11.3669 14.1993 11.3669C15.4836 12.5891 17.8317 12.503 19.1643 11.1705C19.2567 11.0772 19.3068 10.9502 19.3032 10.8189C19.2996 10.6876 19.2424 10.5636 19.1451 10.4755L17.0125 8.56302C20.3046 5.51497 23.6163 5.60624 25.667 6.75126C26.672 7.31323 27.4856 8.16343 28.003 9.19217C28.5206 10.2207 28.7181 11.3809 28.5701 12.5227L28.5706 12.5229Z" fill="#6C7174"/>
<path d="M7.70268 14.6061L8.47074 7.77202L6.88479 7.68606L6.05052 8.40481L5.19562 9.50443L4.7372 10.6255L4.63399 12.5299L4.92726 14.4557L6.80649 16.4674L7.70268 14.6061Z" fill="#6C7174"/>
</svg>
